<mxfile host="app.diagrams.net" modified="2020-05-26T08:17:16.853Z" agent="5.0 (Windows NT 10.0; Win64; x64) AppleWebKit/537.36 (KHTML, like Gecko) Chrome/83.0.4103.61 Safari/537.36" etag="ej55LYfCrqRu69b8EQTJ" version="13.1.3" type="github">
  <diagram id="SuUiZC_N9U9tFSF12oeY" name="Page-1">
    <mxGraphModel dx="716" dy="400" grid="1" gridSize="10" guides="1" tooltips="1" connect="1" arrows="1" fold="1" page="1" pageScale="1" pageWidth="827" pageHeight="1169" math="0" shadow="0">
      <root>
        <mxCell id="0" />
        <mxCell id="1" parent="0" />
        <mxCell id="is_QWXtPLZNYCq21-rHT-21" value="" style="rounded=0;whiteSpace=wrap;html=1;dashed=1;dashPattern=1 4;" vertex="1" parent="1">
          <mxGeometry x="180" y="130" width="190" height="340" as="geometry" />
        </mxCell>
        <mxCell id="is_QWXtPLZNYCq21-rHT-20" value="" style="rounded=0;whiteSpace=wrap;html=1;dashed=1;dashPattern=1 4;" vertex="1" parent="1">
          <mxGeometry x="370" y="130" width="200" height="340" as="geometry" />
        </mxCell>
        <mxCell id="is_QWXtPLZNYCq21-rHT-5" value="" style="edgeStyle=orthogonalEdgeStyle;rounded=0;orthogonalLoop=1;jettySize=auto;html=1;" edge="1" parent="1" source="is_QWXtPLZNYCq21-rHT-1" target="is_QWXtPLZNYCq21-rHT-4">
          <mxGeometry relative="1" as="geometry" />
        </mxCell>
        <mxCell id="is_QWXtPLZNYCq21-rHT-1" value="Оператор" style="shape=umlActor;verticalLabelPosition=bottom;labelBackgroundColor=#ffffff;verticalAlign=top;html=1;outlineConnect=0;" vertex="1" parent="1">
          <mxGeometry x="120" y="250" width="30" height="60" as="geometry" />
        </mxCell>
        <mxCell id="is_QWXtPLZNYCq21-rHT-9" style="edgeStyle=orthogonalEdgeStyle;rounded=0;orthogonalLoop=1;jettySize=auto;html=1;exitX=0.75;exitY=0;exitDx=0;exitDy=0;entryX=0.75;entryY=1;entryDx=0;entryDy=0;startArrow=none;startFill=0;" edge="1" parent="1" source="is_QWXtPLZNYCq21-rHT-4" target="is_QWXtPLZNYCq21-rHT-6">
          <mxGeometry relative="1" as="geometry" />
        </mxCell>
        <mxCell id="is_QWXtPLZNYCq21-rHT-12" style="edgeStyle=orthogonalEdgeStyle;rounded=0;orthogonalLoop=1;jettySize=auto;html=1;exitX=0.25;exitY=1;exitDx=0;exitDy=0;entryX=0;entryY=0.75;entryDx=0;entryDy=0;startArrow=none;startFill=0;" edge="1" parent="1" source="is_QWXtPLZNYCq21-rHT-4" target="is_QWXtPLZNYCq21-rHT-10">
          <mxGeometry relative="1" as="geometry" />
        </mxCell>
        <mxCell id="is_QWXtPLZNYCq21-rHT-18" style="edgeStyle=orthogonalEdgeStyle;rounded=0;orthogonalLoop=1;jettySize=auto;html=1;exitX=1;exitY=0.75;exitDx=0;exitDy=0;entryX=0;entryY=0.75;entryDx=0;entryDy=0;startArrow=none;startFill=0;" edge="1" parent="1" source="is_QWXtPLZNYCq21-rHT-4" target="is_QWXtPLZNYCq21-rHT-11">
          <mxGeometry relative="1" as="geometry" />
        </mxCell>
        <mxCell id="is_QWXtPLZNYCq21-rHT-4" value="ИУС с HMI" style="rounded=1;whiteSpace=wrap;html=1;fillColor=#f8cecc;strokeColor=#b85450;" vertex="1" parent="1">
          <mxGeometry x="210" y="250" width="100" height="60" as="geometry" />
        </mxCell>
        <mxCell id="is_QWXtPLZNYCq21-rHT-8" style="edgeStyle=orthogonalEdgeStyle;rounded=0;orthogonalLoop=1;jettySize=auto;html=1;exitX=0.25;exitY=1;exitDx=0;exitDy=0;entryX=0.25;entryY=0;entryDx=0;entryDy=0;startArrow=none;startFill=0;" edge="1" parent="1" source="is_QWXtPLZNYCq21-rHT-6" target="is_QWXtPLZNYCq21-rHT-4">
          <mxGeometry relative="1" as="geometry" />
        </mxCell>
        <mxCell id="is_QWXtPLZNYCq21-rHT-6" value="Система оптимизации базовых точек" style="rounded=1;whiteSpace=wrap;html=1;" vertex="1" parent="1">
          <mxGeometry x="210" y="150" width="100" height="50" as="geometry" />
        </mxCell>
        <mxCell id="is_QWXtPLZNYCq21-rHT-13" style="edgeStyle=orthogonalEdgeStyle;rounded=0;orthogonalLoop=1;jettySize=auto;html=1;exitX=0;exitY=0.25;exitDx=0;exitDy=0;entryX=0.75;entryY=1;entryDx=0;entryDy=0;startArrow=none;startFill=0;" edge="1" parent="1" source="is_QWXtPLZNYCq21-rHT-10" target="is_QWXtPLZNYCq21-rHT-4">
          <mxGeometry relative="1" as="geometry" />
        </mxCell>
        <mxCell id="is_QWXtPLZNYCq21-rHT-17" style="edgeStyle=orthogonalEdgeStyle;rounded=0;orthogonalLoop=1;jettySize=auto;html=1;exitX=0.75;exitY=0;exitDx=0;exitDy=0;entryX=0.75;entryY=1;entryDx=0;entryDy=0;startArrow=none;startFill=0;" edge="1" parent="1" source="is_QWXtPLZNYCq21-rHT-10" target="is_QWXtPLZNYCq21-rHT-11">
          <mxGeometry relative="1" as="geometry" />
        </mxCell>
        <mxCell id="is_QWXtPLZNYCq21-rHT-27" style="edgeStyle=orthogonalEdgeStyle;rounded=0;orthogonalLoop=1;jettySize=auto;html=1;exitX=0.5;exitY=1;exitDx=0;exitDy=0;entryX=0.5;entryY=0;entryDx=0;entryDy=0;startArrow=classic;startFill=1;" edge="1" parent="1" source="is_QWXtPLZNYCq21-rHT-10" target="is_QWXtPLZNYCq21-rHT-24">
          <mxGeometry relative="1" as="geometry" />
        </mxCell>
        <mxCell id="is_QWXtPLZNYCq21-rHT-10" value="Модуль взаимодействия со сканером" style="rounded=1;whiteSpace=wrap;html=1;" vertex="1" parent="1">
          <mxGeometry x="400" y="360" width="120" height="60" as="geometry" />
        </mxCell>
        <mxCell id="is_QWXtPLZNYCq21-rHT-15" style="edgeStyle=orthogonalEdgeStyle;rounded=0;orthogonalLoop=1;jettySize=auto;html=1;exitX=0.25;exitY=1;exitDx=0;exitDy=0;entryX=0.25;entryY=0;entryDx=0;entryDy=0;startArrow=none;startFill=0;" edge="1" parent="1" source="is_QWXtPLZNYCq21-rHT-11" target="is_QWXtPLZNYCq21-rHT-10">
          <mxGeometry relative="1" as="geometry" />
        </mxCell>
        <mxCell id="is_QWXtPLZNYCq21-rHT-19" style="edgeStyle=orthogonalEdgeStyle;rounded=0;orthogonalLoop=1;jettySize=auto;html=1;exitX=0;exitY=0.25;exitDx=0;exitDy=0;entryX=1;entryY=0.25;entryDx=0;entryDy=0;startArrow=none;startFill=0;" edge="1" parent="1" source="is_QWXtPLZNYCq21-rHT-11" target="is_QWXtPLZNYCq21-rHT-4">
          <mxGeometry relative="1" as="geometry" />
        </mxCell>
        <mxCell id="is_QWXtPLZNYCq21-rHT-26" style="edgeStyle=orthogonalEdgeStyle;rounded=0;orthogonalLoop=1;jettySize=auto;html=1;exitX=1;exitY=0.5;exitDx=0;exitDy=0;entryX=0;entryY=0.5;entryDx=0;entryDy=0;startArrow=classic;startFill=1;" edge="1" parent="1" source="is_QWXtPLZNYCq21-rHT-11" target="is_QWXtPLZNYCq21-rHT-25">
          <mxGeometry relative="1" as="geometry" />
        </mxCell>
        <mxCell id="is_QWXtPLZNYCq21-rHT-11" value="Модуль взаимодействия с роботом" style="rounded=1;whiteSpace=wrap;html=1;" vertex="1" parent="1">
          <mxGeometry x="400" y="250" width="120" height="60" as="geometry" />
        </mxCell>
        <mxCell id="is_QWXtPLZNYCq21-rHT-22" value="Robot operation system" style="text;html=1;strokeColor=none;fillColor=none;align=center;verticalAlign=middle;whiteSpace=wrap;rounded=0;dashed=1;dashPattern=1 4;fontStyle=4" vertex="1" parent="1">
          <mxGeometry x="420" y="140" width="140" height="20" as="geometry" />
        </mxCell>
        <mxCell id="is_QWXtPLZNYCq21-rHT-23" value="Unity" style="text;html=1;strokeColor=none;fillColor=none;align=center;verticalAlign=middle;whiteSpace=wrap;rounded=0;dashed=1;dashPattern=1 4;fontStyle=4" vertex="1" parent="1">
          <mxGeometry x="200" y="440" width="60" height="20" as="geometry" />
        </mxCell>
        <mxCell id="is_QWXtPLZNYCq21-rHT-24" value="Сканер" style="rounded=0;whiteSpace=wrap;html=1;dashed=1;dashPattern=1 4;strokeColor=#000000;" vertex="1" parent="1">
          <mxGeometry x="400" y="490" width="120" height="60" as="geometry" />
        </mxCell>
        <mxCell id="is_QWXtPLZNYCq21-rHT-25" value="Робот" style="rounded=0;whiteSpace=wrap;html=1;dashed=1;dashPattern=1 4;strokeColor=#000000;" vertex="1" parent="1">
          <mxGeometry x="590" y="250" width="120" height="60" as="geometry" />
        </mxCell>
        <mxCell id="is_QWXtPLZNYCq21-rHT-28" value="&lt;i&gt;S&lt;sub&gt;i&lt;/sub&gt;&lt;/i&gt;" style="text;html=1;strokeColor=none;fillColor=none;align=center;verticalAlign=middle;whiteSpace=wrap;rounded=0;dashed=1;dashPattern=1 4;" vertex="1" parent="1">
          <mxGeometry x="360" y="380" width="40" height="20" as="geometry" />
        </mxCell>
        <mxCell id="is_QWXtPLZNYCq21-rHT-29" value="&lt;i&gt;S&lt;sub&gt;o&lt;/sub&gt;&lt;/i&gt;" style="text;html=1;strokeColor=none;fillColor=none;align=center;verticalAlign=middle;whiteSpace=wrap;rounded=0;dashed=1;dashPattern=1 4;" vertex="1" parent="1">
          <mxGeometry x="250" y="320" width="40" height="20" as="geometry" />
        </mxCell>
        <mxCell id="is_QWXtPLZNYCq21-rHT-30" value="&lt;i&gt;&lt;span style=&quot;font-size: 12px&quot;&gt;O&lt;sub&gt;i&lt;/sub&gt;&lt;/span&gt;&lt;/i&gt;" style="text;html=1;strokeColor=none;fillColor=none;align=center;verticalAlign=middle;whiteSpace=wrap;rounded=0;dashed=1;dashPattern=1 4;" vertex="1" parent="1">
          <mxGeometry x="280" y="200" width="40" height="20" as="geometry" />
        </mxCell>
        <mxCell id="is_QWXtPLZNYCq21-rHT-31" value="&lt;i&gt;&lt;span style=&quot;font-size: 12px&quot;&gt;O&lt;sub&gt;o&lt;/sub&gt;&lt;/span&gt;&lt;/i&gt;" style="text;html=1;strokeColor=none;fillColor=none;align=center;verticalAlign=middle;whiteSpace=wrap;rounded=0;dashed=1;dashPattern=1 4;" vertex="1" parent="1">
          <mxGeometry x="200" y="230" width="40" height="20" as="geometry" />
        </mxCell>
        <mxCell id="is_QWXtPLZNYCq21-rHT-32" value="&lt;i&gt;R&lt;sub&gt;i&lt;/sub&gt;&lt;/i&gt;" style="text;html=1;strokeColor=none;fillColor=none;align=center;verticalAlign=middle;whiteSpace=wrap;rounded=0;dashed=1;dashPattern=1 4;" vertex="1" parent="1">
          <mxGeometry x="370" y="310" width="40" height="20" as="geometry" />
        </mxCell>
        <mxCell id="is_QWXtPLZNYCq21-rHT-33" value="&lt;i&gt;&lt;sub&gt;&lt;span style=&quot;font-size: 12px&quot;&gt;R&lt;/span&gt;o&lt;/sub&gt;&lt;/i&gt;" style="text;html=1;strokeColor=none;fillColor=none;align=center;verticalAlign=middle;whiteSpace=wrap;rounded=0;dashed=1;dashPattern=1 4;" vertex="1" parent="1">
          <mxGeometry x="310" y="240" width="40" height="20" as="geometry" />
        </mxCell>
      </root>
    </mxGraphModel>
  </diagram>
</mxfile>
